<?xml version="1.0" encoding="UTF-8" standalone="no"?>
<svg
   xmlns:ooo="http://xml.openoffice.org/svg/export"
   xmlns:osb="http://www.openswatchbook.org/uri/2009/osb"
   xmlns:dc="http://purl.org/dc/elements/1.1/"
   xmlns:cc="http://creativecommons.org/ns#"
   xmlns:rdf="http://www.w3.org/1999/02/22-rdf-syntax-ns#"
   xmlns:svg="http://www.w3.org/2000/svg"
   xmlns="http://www.w3.org/2000/svg"
   xmlns:sodipodi="http://sodipodi.sourceforge.net/DTD/sodipodi-0.dtd"
   xmlns:inkscape="http://www.inkscape.org/namespaces/inkscape"
   version="1.2"
   width="39.361488mm"
   height="14.662685mm"
   viewBox="0 0 3936.149 1466.2686"
   preserveAspectRatio="xMidYMid"
   xml:space="preserve"
   id="svg3663"
   inkscape:version="0.91 r13725"
   sodipodi:docname="coco.svg"
   style="fill-rule:evenodd;stroke-width:28.22200012;stroke-linejoin:round"><metadata
     id="metadata3893"><rdf:RDF><cc:Work
         rdf:about=""><dc:format>image/svg+xml</dc:format><dc:type
           rdf:resource="http://purl.org/dc/dcmitype/StillImage" /><dc:title></dc:title></cc:Work></rdf:RDF></metadata><sodipodi:namedview
     pagecolor="#ffffff"
     bordercolor="#666666"
     borderopacity="1"
     objecttolerance="10"
     gridtolerance="10"
     guidetolerance="10"
     inkscape:pageopacity="0"
     inkscape:pageshadow="2"
     inkscape:window-width="1920"
     inkscape:window-height="975"
     id="namedview3891"
     showgrid="false"
     inkscape:zoom="5.3940106"
     inkscape:cx="48.71529"
     inkscape:cy="17.370635"
     inkscape:window-x="0"
     inkscape:window-y="35"
     inkscape:window-maximized="1"
     inkscape:current-layer="layer2"
     fit-margin-top="0"
     fit-margin-left="0"
     fit-margin-right="0"
     fit-margin-bottom="0" /><defs
     class="ClipPathGroup"
     id="defs3665"><marker
       inkscape:stockid="Arrow1Mstart"
       orient="auto"
       refY="0"
       refX="0"
       id="Arrow1Mstart"
       style="overflow:visible"
       inkscape:isstock="true"><path
         id="path6816"
         d="M 0,0 5,-5 -12.5,0 5,5 0,0 Z"
         style="fill-rule:evenodd;stroke:#000000;stroke-width:1pt"
         transform="matrix(0.4,0,0,0.4,4,0)"
         inkscape:connector-curvature="0" /></marker><marker
       inkscape:stockid="Arrow1Lstart"
       orient="auto"
       refY="0"
       refX="0"
       id="Arrow1Lstart"
       style="overflow:visible"
       inkscape:isstock="true"><path
         id="path6810"
         d="M 0,0 5,-5 -12.5,0 5,5 0,0 Z"
         style="fill-rule:evenodd;stroke:#000000;stroke-width:1pt"
         transform="matrix(0.8,0,0,0.8,10,0)"
         inkscape:connector-curvature="0" /></marker><linearGradient
       id="linearGradient6588"
       osb:paint="solid"><stop
         style="stop-color:#000000;stop-opacity:1;"
         offset="0"
         id="stop6590" /></linearGradient><clipPath
       id="presentation_clip_path"
       clipPathUnits="userSpaceOnUse"><rect
         x="0"
         y="0"
         width="21590"
         height="27940"
         id="rect3668" /></clipPath></defs><defs
     class="TextShapeIndex"
     id="defs3670"><g
       ooo:slide="id1"
       ooo:id-list="id3 id4 id5 id6 id7 id8 id9 id10 id11 id12 id13 id14 id15 id16 id17 id18 id19 id20 id21 id22 id23 id24 id25 id26"
       id="g3672" /></defs><defs
     class="EmbeddedBulletChars"
     id="defs3674"><g
       id="bullet-char-template(57356)"
       transform="scale(4.8828125e-4,-4.8828125e-4)"><path
         d="M 580,1141 1163,571 580,0 -4,571 580,1141 Z"
         id="path3677"
         inkscape:connector-curvature="0" /></g><g
       id="bullet-char-template(57354)"
       transform="scale(4.8828125e-4,-4.8828125e-4)"><path
         d="m 8,1128 1129,0 L 1137,0 8,0 8,1128 Z"
         id="path3680"
         inkscape:connector-curvature="0" /></g><g
       id="bullet-char-template(10146)"
       transform="scale(4.8828125e-4,-4.8828125e-4)"><path
         d="M 174,0 602,739 174,1481 1456,739 174,0 Z m 1184,739 -1049,607 350,-607 699,0 z"
         id="path3683"
         inkscape:connector-curvature="0" /></g><g
       id="bullet-char-template(10132)"
       transform="scale(4.8828125e-4,-4.8828125e-4)"><path
         d="M 2015,739 1276,0 717,0 l 543,543 -1086,0 0,393 1086,0 -543,545 557,0 741,-742 z"
         id="path3686"
         inkscape:connector-curvature="0" /></g><g
       id="bullet-char-template(10007)"
       transform="scale(4.8828125e-4,-4.8828125e-4)"><path
         d="m 0,-2 c -7,16 -16,29 -25,39 l 381,530 c -94,256 -141,385 -141,387 0,25 13,38 40,38 9,0 21,-2 34,-5 21,4 42,12 65,25 l 27,-13 111,-251 280,301 64,-25 24,25 c 21,-10 41,-24 62,-43 C 886,937 835,863 770,784 769,783 710,716 594,584 L 774,223 c 0,-27 -21,-55 -63,-84 l 16,-20 C 717,90 699,76 672,76 641,76 570,178 457,381 L 164,-76 c -22,-34 -53,-51 -92,-51 -42,0 -63,17 -64,51 -7,9 -10,24 -10,44 0,9 1,19 2,30 z"
         id="path3689"
         inkscape:connector-curvature="0" /></g><g
       id="bullet-char-template(10004)"
       transform="scale(4.8828125e-4,-4.8828125e-4)"><path
         d="M 285,-33 C 182,-33 111,30 74,156 52,228 41,333 41,471 c 0,78 14,145 41,201 34,71 87,106 158,106 53,0 88,-31 106,-94 l 23,-176 c 8,-64 28,-97 59,-98 l 735,706 c 11,11 33,17 66,17 42,0 63,-15 63,-46 l 0,-122 c 0,-36 -10,-64 -30,-84 L 442,47 C 390,-6 338,-33 285,-33 Z"
         id="path3692"
         inkscape:connector-curvature="0" /></g><g
       id="bullet-char-template(9679)"
       transform="scale(4.8828125e-4,-4.8828125e-4)"><path
         d="M 813,0 C 632,0 489,54 383,161 276,268 223,411 223,592 c 0,181 53,324 160,431 106,107 249,161 430,161 179,0 323,-54 432,-161 108,-107 162,-251 162,-431 0,-180 -54,-324 -162,-431 C 1136,54 992,0 813,0 Z"
         id="path3695"
         inkscape:connector-curvature="0" /></g><g
       id="bullet-char-template(8226)"
       transform="scale(4.8828125e-4,-4.8828125e-4)"><path
         d="m 346,457 c -73,0 -137,26 -191,78 -54,51 -81,114 -81,188 0,73 27,136 81,188 54,52 118,78 191,78 73,0 134,-26 185,-79 51,-51 77,-114 77,-187 0,-75 -25,-137 -76,-188 -50,-52 -112,-78 -186,-78 z"
         id="path3698"
         inkscape:connector-curvature="0" /></g><g
       id="bullet-char-template(8211)"
       transform="scale(4.8828125e-4,-4.8828125e-4)"><path
         d="m -4,459 1139,0 0,147 -1139,0 0,-147 z"
         id="path3701"
         inkscape:connector-curvature="0" /></g></defs><defs
     class="TextEmbeddedBitmaps"
     id="defs3703" /><g
     id="g3705"
     transform="translate(-4308.1666,-14691.247)"><g
       id="id2"
       class="Master_Slide"><g
         id="bg-id2"
         class="Background" /><g
         id="bo-id2"
         class="BackgroundObjects" /></g></g><g
     inkscape:groupmode="layer"
     id="layer1"
     inkscape:label="Layer 1"
     transform="translate(-4308.1666,-14691.247)" /><g
     inkscape:groupmode="layer"
     id="layer2"
     inkscape:label="Layer 2"
     transform="translate(-4308.1666,-14691.247)"><g
       class="SlideGroup"
       id="g3710"
       transform="matrix(1.2550609,0,0,1.3149081,-1098.4743,-4626.7904)"><g
         transform="translate(-361.01763,172.66063)"
         id="g3717"
         class="Group"><g
           id="g3719"
           class="com.sun.star.drawing.ClosedBezierShape"><g
             id="id3"><path
               style="fill:#ffffff;stroke:none"
               inkscape:connector-curvature="0"
               id="path3722"
               d="m 5894,15527 0,100 -42,0 0,-245 113,0 c 39,0 64,14 73,42 3,8 4,17 4,26 0,23 -8,41 -26,53 -4,3 -7,4 -8,2 11,3 18,9 23,19 4,9 6,23 6,42 1,19 2,31 5,36 1,2 4,4 9,8 l 0,17 -47,0 c -6,-14 -9,-29 -9,-45 l 1,-20 c 0,-20 -7,-31 -21,-34 -3,-1 -7,-1 -11,-1 l -70,0 z m 0,-39 65,0 c 22,0 35,-8 38,-23 1,-3 1,-6 1,-11 0,-11 -3,-20 -10,-26 -5,-5 -15,-7 -29,-7 l -65,0 0,67 z" /></g></g><g
           id="g3724"
           class="com.sun.star.drawing.PolyPolygonShape"><g
             id="id4"><path
               style="fill:#ffffff;stroke:none"
               inkscape:connector-curvature="0"
               id="path3727"
               d="m 6134,15521 0,67 137,0 0,39 -179,0 0,-246 173,0 0,39 -131,0 0,62 127,0 0,39 -127,0 z" /></g></g><g
           id="g3729"
           class="com.sun.star.drawing.ClosedBezierShape"><g
             id="id5"><path
               style="fill:#ffffff;stroke:none"
               inkscape:connector-curvature="0"
               id="path3732"
               d="m 6491,15462 -41,0 c -1,-24 -11,-39 -31,-45 -6,-1 -13,-2 -21,-2 -19,0 -33,6 -40,16 l -4,7 c 0,3 -1,6 -1,10 0,9 5,16 14,21 4,2 11,5 19,7 l 58,15 c 28,8 46,23 52,46 2,6 3,13 3,19 0,20 -7,37 -21,52 -2,2 -5,5 -7,7 -17,13 -40,19 -70,19 -38,0 -65,-12 -83,-36 -10,-13 -15,-33 -15,-59 l 42,0 c -1,13 1,23 4,29 1,3 4,6 6,10 9,11 26,17 48,17 18,0 31,-3 39,-9 8,-6 12,-13 14,-23 0,-1 0,-3 0,-4 0,-13 -10,-23 -30,-29 l -8,-2 -57,-15 c -34,-9 -51,-29 -51,-61 0,-29 12,-50 37,-63 14,-8 32,-12 52,-12 40,0 67,13 82,39 6,11 10,27 10,46 z" /></g></g><g
           id="g3734"
           class="com.sun.star.drawing.ClosedBezierShape"><g
             id="id6"><path
               style="fill:#ffffff;stroke:none"
               inkscape:connector-curvature="0"
               id="path3737"
               d="m 6584,15528 0,99 -43,0 0,-246 102,0 c 37,0 61,14 72,42 4,9 6,20 6,33 0,22 -7,40 -22,54 -13,12 -30,18 -49,18 l -66,0 z m 0,-39 55,0 c 18,0 30,-7 36,-20 1,-4 2,-9 2,-15 0,-16 -6,-26 -20,-31 l -10,-2 c -3,-1 -5,-1 -8,-1 l -55,0 0,69 z" /></g></g><g
           id="g3739"
           class="com.sun.star.drawing.ClosedBezierShape"><g
             id="id7"><path
               style="fill:#ffffff;stroke:none"
               inkscape:connector-curvature="0"
               id="path3742"
               d="m 6866,15377 c 39,0 70,14 92,42 l 8,12 c 13,22 19,47 19,76 0,33 -9,62 -27,85 -5,6 -10,11 -15,16 -21,17 -46,26 -76,26 -38,0 -68,-13 -90,-40 -19,-23 -29,-53 -29,-89 0,-41 12,-73 37,-97 22,-21 49,-31 81,-31 z m 0,39 c -25,0 -45,10 -59,30 -11,16 -16,36 -16,59 0,32 9,56 28,72 13,12 29,18 48,18 25,0 44,-10 58,-30 12,-15 17,-35 17,-58 0,-33 -9,-58 -29,-74 -12,-11 -28,-17 -47,-17 z" /></g></g><g
           id="g3744"
           class="com.sun.star.drawing.PolyPolygonShape"><g
             id="id8"><path
               style="fill:#ffffff;stroke:none"
               inkscape:connector-curvature="0"
               id="path3747"
               d="m 7214,15381 0,246 -44,0 -110,-172 0,172 -41,0 0,-246 42,0 111,174 0,-174 42,0 z" /></g></g><g
           id="g3749"
           class="com.sun.star.drawing.ClosedBezierShape"><g
             id="id9"><path
               style="fill:#ffffff;stroke:none"
               inkscape:connector-curvature="0"
               id="path3752"
               d="m 7264,15627 0,-246 96,0 c 37,0 65,15 83,45 l 7,15 c 8,18 11,39 11,63 0,46 -13,80 -39,102 -17,14 -37,21 -62,21 l -96,0 z m 43,-39 48,0 c 33,0 54,-18 61,-53 2,-9 2,-19 2,-31 0,-49 -16,-76 -48,-82 -4,-1 -10,-2 -15,-2 l -48,0 0,168 z" /></g></g><g
           id="g3754"
           class="com.sun.star.drawing.PolyPolygonShape"><g
             id="id10"><path
               style="fill:#ffffff;stroke:none"
               inkscape:connector-curvature="0"
               id="path3757"
               d="m 7548,15521 0,67 137,0 0,39 -179,0 0,-246 173,0 0,39 -131,0 0,62 127,0 0,39 -127,0 z" /></g></g></g><g
         transform="translate(-361.01763,172.66063)"
         id="g3759"
         class="Group"><g
           id="g3761"
           class="com.sun.star.drawing.ClosedBezierShape"><g
             id="id11"><path
               style="fill:#8d6e63;stroke:none"
               inkscape:connector-curvature="0"
               id="path3764"
               d="m 5287,15133 c -164,110 -240,139 -321,139 -85,0 -132,-56 -132,-161 0,-241 167,-472 335,-472 61,0 85,29 96,165 l 139,-116 c -14,-106 -73,-155 -170,-155 -113,0 -245,65 -356,173 -122,120 -195,289 -195,449 0,134 84,223 212,223 110,0 251,-52 366,-138 l 26,-107 z" /><path
               style="fill:none;stroke:#ffffff"
               inkscape:connector-curvature="0"
               id="path3766"
               d="m 5287,15133 c -164,110 -240,139 -321,139 -85,0 -132,-56 -132,-161 0,-241 167,-472 335,-472 61,0 85,29 96,165 l 139,-116 c -14,-106 -73,-155 -170,-155 -113,0 -245,65 -356,173 -122,120 -195,289 -195,449 0,134 84,223 212,223 110,0 251,-52 366,-138 l 26,-107 z" /></g></g><g
           id="g3768"
           class="com.sun.star.drawing.ClosedBezierShape"><g
             id="id12"><path
               style="fill:#8d6e63;stroke:none"
               inkscape:connector-curvature="0"
               id="path3771"
               d="m 5536,14769 c 43,-39 44,-40 87,-73 -13,-25 -18,-34 -20,-36 -6,-13 -17,-6 -13,-27 -2,-5 -3,-8 -14,-35 -24,19 -31,23 -35,27 -3,3 -9,8 -19,15 -4,4 -9,8 -18,13 -4,3 -6,5 -23,13 12,38 22,55 55,103 z m 91,284 c -114,74 -114,62 -126,62 0,1 3,4 3,-6 0,-8 2,-23 8,-42 46,-193 56,-232 56,-241 0,-15 -17,-29 -30,-29 -20,0 -80,33 -163,89 l -5,70 c 84,-45 84,-45 88,-45 1,-7 -8,-8 -8,-3 0,10 -2,20 -16,72 -43,160 -43,165 -43,188 0,28 17,56 41,56 20,0 49,-14 99,-45 17,-11 35,-22 52,-34 8,-4 17,-10 33,-20 l 11,-72 z" /><path
               style="fill:none;stroke:#ffffff"
               inkscape:connector-curvature="0"
               id="path3773"
               d="m 5536,14769 c 43,-39 44,-40 87,-73 -13,-25 -18,-34 -20,-36 -6,-13 -17,-6 -13,-27 -2,-5 -3,-8 -14,-35 -24,19 -31,23 -35,27 -3,3 -9,8 -19,15 -4,4 -9,8 -18,13 -4,3 -6,5 -23,13 12,38 22,55 55,103 z" /><path
               style="fill:none;stroke:#ffffff"
               inkscape:connector-curvature="0"
               id="path3775"
               d="m 5627,15053 c -114,74 -114,62 -126,62 0,1 3,4 3,-6 0,-8 2,-23 8,-42 46,-193 56,-232 56,-241 0,-15 -17,-29 -30,-29 -20,0 -80,33 -163,89 l -5,70 c 84,-45 84,-45 88,-45 1,-7 -8,-8 -8,-3 0,10 -2,20 -16,72 -43,160 -43,165 -43,188 0,28 17,56 41,56 20,0 49,-14 99,-45 17,-11 35,-22 52,-34 8,-4 17,-10 33,-20 l 11,-72 z" /></g></g><g
           id="g3777"
           class="com.sun.star.drawing.ClosedBezierShape"><g
             id="id13"><path
               style="fill:#8d6e63;stroke:none"
               inkscape:connector-curvature="0"
               id="path3780"
               d="m 5944,15026 c -99,85 -137,108 -167,108 -16,0 -25,-8 -30,-26 -3,-13 -4,-20 -4,-35 33,-21 61,-40 115,-81 52,-40 76,-77 76,-124 0,-41 -31,-71 -71,-71 -23,0 -42,6 -65,19 -36,21 -70,48 -91,71 -37,46 -70,153 -70,230 0,61 38,107 94,107 59,0 133,-42 213,-122 l 0,-76 z m -192,-36 c 8,-53 44,-116 72,-116 5,0 6,2 6,18 0,39 -18,59 -78,98 z" /><path
               style="fill:none;stroke:#ffffff"
               inkscape:connector-curvature="0"
               id="path3782"
               d="m 5944,15026 c -99,85 -137,108 -167,108 -16,0 -25,-8 -30,-26 -3,-13 -4,-20 -4,-35 33,-21 61,-40 115,-81 52,-40 76,-77 76,-124 0,-41 -31,-71 -71,-71 -23,0 -42,6 -65,19 -36,21 -70,48 -91,71 -37,46 -70,153 -70,230 0,61 38,107 94,107 59,0 133,-42 213,-122 l 0,-76 z" /><path
               style="fill:none;stroke:#ffffff"
               inkscape:connector-curvature="0"
               id="path3784"
               d="m 5752,14990 c 8,-53 44,-116 72,-116 5,0 6,2 6,18 0,39 -18,59 -78,98 z" /></g></g><g
           id="g3786"
           class="com.sun.star.drawing.ClosedBezierShape"><g
             id="id14"><path
               style="fill:#8d6e63;stroke:none"
               inkscape:connector-curvature="0"
               id="path3789"
               d="m 6094,15190 54,-218 c 101,-75 101,-65 114,-65 0,-7 -7,-9 -9,-7 0,12 -7,44 -34,148 -20,81 -24,99 -24,119 0,15 5,32 25,65 59,-27 124,-67 194,-119 l 19,-76 c -130,74 -129,75 -134,74 0,3 5,4 5,-6 0,-17 6,-45 23,-107 43,-154 44,-160 44,-166 0,-19 -19,-35 -38,-35 -17,0 -42,11 -77,33 l -95,67 c 7,1 21,-59 21,-69 0,-14 -17,-31 -31,-31 -15,0 -86,37 -161,81 l -16,70 c 92,-42 92,-42 98,-42 0,-5 -8,-7 -8,-6 0,17 -17,91 -40,173 l -21,75 c -2,6 -6,24 -22,85 l 113,-43 z" /><path
               style="fill:none;stroke:#ffffff"
               inkscape:connector-curvature="0"
               id="path3791"
               d="m 6094,15190 54,-218 c 101,-75 101,-65 114,-65 0,-7 -7,-9 -9,-7 0,12 -7,44 -34,148 -20,81 -24,99 -24,119 0,15 5,32 25,65 59,-27 124,-67 194,-119 l 19,-76 c -130,74 -129,75 -134,74 0,3 5,4 5,-6 0,-17 6,-45 23,-107 43,-154 44,-160 44,-166 0,-19 -19,-35 -38,-35 -17,0 -42,11 -77,33 l -95,67 c 7,1 21,-59 21,-69 0,-14 -17,-31 -31,-31 -15,0 -86,37 -161,81 l -16,70 c 92,-42 92,-42 98,-42 0,-5 -8,-7 -8,-6 0,17 -17,91 -40,173 l -21,75 c -2,6 -6,24 -22,85 l 113,-43 z" /></g></g><g
           id="g3793"
           class="com.sun.star.drawing.ClosedBezierShape"><g
             id="id15"><path
               style="fill:#8d6e63;stroke:none"
               inkscape:connector-curvature="0"
               id="path3796"
               d="m 6762,15038 c -102,73 -146,96 -170,96 -24,0 -33,-13 -33,-51 0,-42 10,-97 27,-139 17,-45 32,-61 51,-61 12,0 15,5 23,70 l 85,-50 c 3,-15 3,-22 3,-23 0,-46 -30,-83 -71,-83 -20,0 -35,6 -70,29 -70,44 -88,61 -110,102 -27,51 -47,133 -47,193 0,59 34,103 86,103 48,0 129,-39 221,-108 l 5,-78 z" /><path
               style="fill:none;stroke:#ffffff"
               inkscape:connector-curvature="0"
               id="path3798"
               d="m 6762,15038 c -102,73 -146,96 -170,96 -24,0 -33,-13 -33,-51 0,-42 10,-97 27,-139 17,-45 32,-61 51,-61 12,0 15,5 23,70 l 85,-50 c 3,-15 3,-22 3,-23 0,-46 -30,-83 -71,-83 -20,0 -35,6 -70,29 -70,44 -88,61 -110,102 -27,51 -47,133 -47,193 0,59 34,103 86,103 48,0 129,-39 221,-108 l 5,-78 z" /></g></g><g
           id="g3800"
           class="com.sun.star.drawing.ClosedBezierShape"><g
             id="id16"><path
               style="fill:#8d6e63;stroke:none"
               inkscape:connector-curvature="0"
               id="path3803"
               d="m 6959,14769 c 43,-39 44,-40 87,-73 -13,-25 -18,-34 -20,-36 -6,-13 -17,-6 -13,-27 -2,-5 -3,-8 -14,-35 -24,19 -31,23 -35,27 -3,3 -9,8 -19,15 -4,4 -9,8 -18,13 -4,3 -6,5 -23,13 12,38 22,55 55,103 z m 91,284 c -114,74 -114,62 -126,62 0,1 3,4 3,-6 0,-8 2,-23 8,-42 46,-193 56,-232 56,-241 0,-15 -17,-29 -30,-29 -20,0 -80,33 -163,89 l -5,70 c 84,-45 84,-45 88,-45 1,-7 -8,-8 -8,-3 0,10 -2,20 -16,72 -43,160 -43,165 -43,188 0,28 17,56 41,56 20,0 49,-14 99,-45 17,-11 35,-22 52,-34 8,-4 17,-10 33,-20 l 11,-72 z" /><path
               style="fill:none;stroke:#ffffff"
               inkscape:connector-curvature="0"
               id="path3805"
               d="m 6959,14769 c 43,-39 44,-40 87,-73 -13,-25 -18,-34 -20,-36 -6,-13 -17,-6 -13,-27 -2,-5 -3,-8 -14,-35 -24,19 -31,23 -35,27 -3,3 -9,8 -19,15 -4,4 -9,8 -18,13 -4,3 -6,5 -23,13 12,38 22,55 55,103 z" /><path
               style="fill:none;stroke:#ffffff"
               inkscape:connector-curvature="0"
               id="path3807"
               d="m 7050,15053 c -114,74 -114,62 -126,62 0,1 3,4 3,-6 0,-8 2,-23 8,-42 46,-193 56,-232 56,-241 0,-15 -17,-29 -30,-29 -20,0 -80,33 -163,89 l -5,70 c 84,-45 84,-45 88,-45 1,-7 -8,-8 -8,-3 0,10 -2,20 -16,72 -43,160 -43,165 -43,188 0,28 17,56 41,56 20,0 49,-14 99,-45 17,-11 35,-22 52,-34 8,-4 17,-10 33,-20 l 11,-72 z" /></g></g><g
           id="g3809"
           class="com.sun.star.drawing.ClosedBezierShape"><g
             id="id17"><path
               style="fill:#8d6e63;stroke:none"
               inkscape:connector-curvature="0"
               id="path3812"
               d="m 7470,15037 c -100,67 -109,72 -112,72 0,7 8,6 8,1 0,-22 21,-120 53,-238 8,-12 10,-14 45,-53 -77,-18 -111,-22 -151,-22 -40,0 -63,5 -89,21 -34,20 -75,50 -88,64 -37,42 -77,172 -77,250 0,48 22,92 56,92 26,0 61,-21 140,-81 -2,0 -7,30 -7,43 0,18 15,38 33,38 11,0 22,-3 95,-50 27,-17 49,-32 91,-64 l 3,-73 z m -211,27 c -53,39 -75,51 -87,51 -3,0 -4,-2 -4,-26 0,-44 13,-102 36,-153 20,-47 32,-58 55,-58 15,0 42,4 55,7 -13,50 -20,71 -21,77 -5,23 -10,46 -16,69 0,5 -3,15 -6,25 l -12,8 z" /><path
               style="fill:none;stroke:#ffffff"
               inkscape:connector-curvature="0"
               id="path3814"
               d="m 7470,15037 c -100,67 -109,72 -112,72 0,7 8,6 8,1 0,-22 21,-120 53,-238 8,-12 10,-14 45,-53 -77,-18 -111,-22 -151,-22 -40,0 -63,5 -89,21 -34,20 -75,50 -88,64 -37,42 -77,172 -77,250 0,48 22,92 56,92 26,0 61,-21 140,-81 -2,0 -7,30 -7,43 0,18 15,38 33,38 11,0 22,-3 95,-50 27,-17 49,-32 91,-64 l 3,-73 z" /><path
               style="fill:none;stroke:#ffffff"
               inkscape:connector-curvature="0"
               id="path3816"
               d="m 7259,15064 c -53,39 -75,51 -87,51 -3,0 -4,-2 -4,-26 0,-44 13,-102 36,-153 20,-47 32,-58 55,-58 15,0 42,4 55,7 -13,50 -20,71 -21,77 -5,23 -10,46 -16,69 0,5 -3,15 -6,25 l -12,8 z" /></g></g><g
           id="g3818"
           class="com.sun.star.drawing.ClosedBezierShape"><g
             id="id18"><path
               style="fill:#8d6e63;stroke:none"
               inkscape:connector-curvature="0"
               id="path3821"
               d="m 7443,15105 c -2,17 -3,26 -3,33 0,47 38,86 87,86 31,0 75,-14 106,-31 58,-34 97,-89 97,-141 0,-41 -13,-56 -67,-89 -28,-18 -35,-28 -35,-45 0,-24 16,-40 39,-40 15,0 23,5 55,45 46,-45 49,-48 69,-77 -30,-36 -55,-49 -86,-49 -74,0 -172,90 -172,159 0,34 20,64 58,91 43,30 44,31 44,47 0,25 -31,53 -59,53 -14,0 -20,-5 -28,-20 -5,-11 -6,-21 -8,-88 -39,29 -46,33 -50,36 -6,4 -15,9 -24,15 l -23,15 z" /><path
               style="fill:none;stroke:#ffffff"
               inkscape:connector-curvature="0"
               id="path3823"
               d="m 7443,15105 c -2,17 -3,26 -3,33 0,47 38,86 87,86 31,0 75,-14 106,-31 58,-34 97,-89 97,-141 0,-41 -13,-56 -67,-89 -28,-18 -35,-28 -35,-45 0,-24 16,-40 39,-40 15,0 23,5 55,45 46,-45 49,-48 69,-77 -30,-36 -55,-49 -86,-49 -74,0 -172,90 -172,159 0,34 20,64 58,91 43,30 44,31 44,47 0,25 -31,53 -59,53 -14,0 -20,-5 -28,-20 -5,-11 -6,-21 -8,-88 -39,29 -46,33 -50,36 -6,4 -15,9 -24,15 l -23,15 z" /></g></g></g><g
         transform="translate(-361.01763,172.66063)"
         id="g3825"
         class="Group"
         style="opacity:1;stroke:#ffffff;stroke-width:22.57777596;stroke-linecap:square;stroke-linejoin:round;stroke-miterlimit:0;stroke-dasharray:none;stroke-opacity:1"><g
           id="g3827"
           class="com.sun.star.drawing.ClosedBezierShape"
           style="stroke:#ffffff;stroke-width:22.57777596;stroke-linecap:square;stroke-linejoin:round;stroke-miterlimit:0;stroke-dasharray:none;stroke-opacity:1"><g
             id="id19"
             style="stroke:#ffffff;stroke-width:22.57777596;stroke-linecap:square;stroke-linejoin:round;stroke-miterlimit:0;stroke-dasharray:none;stroke-opacity:1"><path
               style="fill:#8d6e63;stroke:#ffffff;stroke-width:22.57777596;stroke-linecap:square;stroke-linejoin:round;stroke-miterlimit:0;stroke-dasharray:none;stroke-opacity:1"
               inkscape:connector-curvature="0"
               id="path3830"
               d="m 5287,15134 c -164,110 -240,139 -321,139 -85,0 -132,-56 -132,-161 0,-241 167,-472 335,-472 61,0 85,29 96,165 l 139,-116 c -14,-106 -73,-155 -170,-155 -113,0 -245,65 -356,173 -122,120 -195,289 -195,449 0,134 84,223 212,223 110,0 251,-52 366,-138 l 26,-107 z" /><path
               style="fill:none;stroke:#ffffff;stroke-width:22.57777596;stroke-linecap:square;stroke-linejoin:round;stroke-miterlimit:0;stroke-dasharray:none;stroke-opacity:1"
               inkscape:connector-curvature="0"
               id="path3832"
               d="m 5287,15134 c -164,110 -240,139 -321,139 -85,0 -132,-56 -132,-161 0,-241 167,-472 335,-472 61,0 85,29 96,165 l 139,-116 c -14,-106 -73,-155 -170,-155 -113,0 -245,65 -356,173 -122,120 -195,289 -195,449 0,134 84,223 212,223 110,0 251,-52 366,-138 l 26,-107 z" /></g></g><g
           id="g3834"
           class="com.sun.star.drawing.ClosedBezierShape"
           style="stroke:#ffffff;stroke-width:22.57777596;stroke-linecap:square;stroke-linejoin:round;stroke-miterlimit:0;stroke-dasharray:none;stroke-opacity:1"><g
             id="id20"
             style="stroke:#ffffff;stroke-width:22.57777596;stroke-linecap:square;stroke-linejoin:round;stroke-miterlimit:0;stroke-dasharray:none;stroke-opacity:1"><path
               style="fill:#8d6e63;stroke:#ffffff;stroke-width:22.57777596;stroke-linecap:square;stroke-linejoin:round;stroke-miterlimit:0;stroke-dasharray:none;stroke-opacity:1"
               inkscape:connector-curvature="0"
               id="path3837"
               d="m 5536,14770 c 43,-39 44,-40 87,-73 -13,-25 -18,-34 -20,-36 -6,-13 -17,-6 -13,-27 -2,-5 -3,-8 -14,-35 -24,19 -31,23 -35,27 -3,3 -9,8 -19,15 -4,4 -9,8 -18,13 -4,3 -6,5 -23,13 12,38 22,55 55,103 z m 91,284 c -114,74 -114,62 -126,62 0,1 3,4 3,-6 0,-8 2,-23 8,-42 46,-193 56,-232 56,-241 0,-15 -17,-29 -30,-29 -20,0 -80,33 -163,89 l -5,70 c 84,-45 84,-45 88,-45 1,-7 -8,-8 -8,-3 0,10 -2,20 -16,72 -43,160 -43,165 -43,188 0,28 17,56 41,56 20,0 49,-14 99,-45 17,-11 35,-22 52,-34 8,-4 17,-10 33,-20 l 11,-72 z" /><path
               style="fill:none;stroke:#ffffff;stroke-width:22.57777596;stroke-linecap:square;stroke-linejoin:round;stroke-miterlimit:0;stroke-dasharray:none;stroke-opacity:1"
               inkscape:connector-curvature="0"
               id="path3839"
               d="m 5536,14770 c 43,-39 44,-40 87,-73 -13,-25 -18,-34 -20,-36 -6,-13 -17,-6 -13,-27 -2,-5 -3,-8 -14,-35 -24,19 -31,23 -35,27 -3,3 -9,8 -19,15 -4,4 -9,8 -18,13 -4,3 -6,5 -23,13 12,38 22,55 55,103 z" /><path
               style="fill:none;stroke:#ffffff;stroke-width:22.57777596;stroke-linecap:square;stroke-linejoin:round;stroke-miterlimit:0;stroke-dasharray:none;stroke-opacity:1"
               inkscape:connector-curvature="0"
               id="path3841"
               d="m 5627,15054 c -114,74 -114,62 -126,62 0,1 3,4 3,-6 0,-8 2,-23 8,-42 46,-193 56,-232 56,-241 0,-15 -17,-29 -30,-29 -20,0 -80,33 -163,89 l -5,70 c 84,-45 84,-45 88,-45 1,-7 -8,-8 -8,-3 0,10 -2,20 -16,72 -43,160 -43,165 -43,188 0,28 17,56 41,56 20,0 49,-14 99,-45 17,-11 35,-22 52,-34 8,-4 17,-10 33,-20 l 11,-72 z" /></g></g><g
           id="g3843"
           class="com.sun.star.drawing.ClosedBezierShape"
           style="stroke:#ffffff;stroke-width:22.57777596;stroke-linecap:square;stroke-linejoin:round;stroke-miterlimit:0;stroke-dasharray:none;stroke-opacity:1"><g
             id="id21"
             style="stroke:#ffffff;stroke-width:22.57777596;stroke-linecap:square;stroke-linejoin:round;stroke-miterlimit:0;stroke-dasharray:none;stroke-opacity:1"><path
               style="fill:#8d6e63;stroke:#ffffff;stroke-width:22.57777596;stroke-linecap:square;stroke-linejoin:round;stroke-miterlimit:0;stroke-dasharray:none;stroke-opacity:1"
               inkscape:connector-curvature="0"
               id="path3846"
               d="m 5944,15027 c -99,85 -137,108 -167,108 -16,0 -25,-8 -30,-26 -3,-13 -4,-20 -4,-35 33,-21 61,-40 115,-81 52,-40 76,-77 76,-124 0,-41 -31,-71 -71,-71 -23,0 -42,6 -65,19 -36,21 -70,48 -91,71 -37,46 -70,153 -70,230 0,61 38,107 94,107 59,0 133,-42 213,-122 l 0,-76 z m -192,-36 c 8,-53 44,-116 72,-116 5,0 6,2 6,18 0,39 -18,59 -78,98 z" /><path
               style="fill:none;stroke:#ffffff;stroke-width:22.57777596;stroke-linecap:square;stroke-linejoin:round;stroke-miterlimit:0;stroke-dasharray:none;stroke-opacity:1"
               inkscape:connector-curvature="0"
               id="path3848"
               d="m 5944,15027 c -99,85 -137,108 -167,108 -16,0 -25,-8 -30,-26 -3,-13 -4,-20 -4,-35 33,-21 61,-40 115,-81 52,-40 76,-77 76,-124 0,-41 -31,-71 -71,-71 -23,0 -42,6 -65,19 -36,21 -70,48 -91,71 -37,46 -70,153 -70,230 0,61 38,107 94,107 59,0 133,-42 213,-122 l 0,-76 z" /><path
               style="fill:none;stroke:#ffffff;stroke-width:22.57777596;stroke-linecap:square;stroke-linejoin:round;stroke-miterlimit:0;stroke-dasharray:none;stroke-opacity:1"
               inkscape:connector-curvature="0"
               id="path3850"
               d="m 5752,14991 c 8,-53 44,-116 72,-116 5,0 6,2 6,18 0,39 -18,59 -78,98 z" /></g></g><g
           id="g3852"
           class="com.sun.star.drawing.ClosedBezierShape"
           style="stroke:#ffffff;stroke-width:22.57777596;stroke-linecap:square;stroke-linejoin:round;stroke-miterlimit:0;stroke-dasharray:none;stroke-opacity:1"><g
             id="id22"
             style="stroke:#ffffff;stroke-width:22.57777596;stroke-linecap:square;stroke-linejoin:round;stroke-miterlimit:0;stroke-dasharray:none;stroke-opacity:1"><path
               style="fill:#8d6e63;stroke:#ffffff;stroke-width:22.57777596;stroke-linecap:square;stroke-linejoin:round;stroke-miterlimit:0;stroke-dasharray:none;stroke-opacity:1"
               inkscape:connector-curvature="0"
               id="path3855"
               d="m 6094,15191 54,-218 c 101,-75 101,-65 114,-65 0,-7 -7,-9 -9,-7 0,11 -7,44 -34,148 -20,81 -24,99 -24,119 0,15 5,32 25,65 59,-27 124,-67 194,-119 l 19,-76 c -130,74 -129,75 -134,74 0,3 5,4 5,-6 0,-17 6,-45 23,-107 43,-154 44,-160 44,-166 0,-19 -19,-35 -38,-35 -17,0 -42,11 -77,33 l -95,67 c 7,1 21,-59 21,-69 0,-14 -17,-31 -31,-31 -15,0 -86,37 -161,81 l -16,70 c 92,-42 92,-42 98,-42 0,-5 -8,-7 -8,-6 0,17 -17,90 -40,173 l -21,75 c -2,6 -6,24 -22,85 l 113,-43 z" /><path
               style="fill:none;stroke:#ffffff;stroke-width:22.57777596;stroke-linecap:square;stroke-linejoin:round;stroke-miterlimit:0;stroke-dasharray:none;stroke-opacity:1"
               inkscape:connector-curvature="0"
               id="path3857"
               d="m 6094,15191 54,-218 c 101,-75 101,-65 114,-65 0,-7 -7,-9 -9,-7 0,11 -7,44 -34,148 -20,81 -24,99 -24,119 0,15 5,32 25,65 59,-27 124,-67 194,-119 l 19,-76 c -130,74 -129,75 -134,74 0,3 5,4 5,-6 0,-17 6,-45 23,-107 43,-154 44,-160 44,-166 0,-19 -19,-35 -38,-35 -17,0 -42,11 -77,33 l -95,67 c 7,1 21,-59 21,-69 0,-14 -17,-31 -31,-31 -15,0 -86,37 -161,81 l -16,70 c 92,-42 92,-42 98,-42 0,-5 -8,-7 -8,-6 0,17 -17,90 -40,173 l -21,75 c -2,6 -6,24 -22,85 l 113,-43 z" /></g></g><g
           id="g3859"
           class="com.sun.star.drawing.ClosedBezierShape"
           style="stroke:#ffffff;stroke-width:22.57777596;stroke-linecap:square;stroke-linejoin:round;stroke-miterlimit:0;stroke-dasharray:none;stroke-opacity:1"><g
             id="id23"
             style="stroke:#ffffff;stroke-width:22.57777596;stroke-linecap:square;stroke-linejoin:round;stroke-miterlimit:0;stroke-dasharray:none;stroke-opacity:1"><path
               style="fill:#8d6e63;stroke:#ffffff;stroke-width:22.57777596;stroke-linecap:square;stroke-linejoin:round;stroke-miterlimit:0;stroke-dasharray:none;stroke-opacity:1"
               inkscape:connector-curvature="0"
               id="path3862"
               d="m 6762,15039 c -102,73 -146,96 -170,96 -24,0 -33,-13 -33,-51 0,-42 10,-97 27,-139 17,-45 32,-61 51,-61 12,0 15,5 23,70 l 85,-50 c 3,-15 3,-22 3,-23 0,-46 -30,-83 -71,-83 -20,0 -35,6 -70,29 -70,44 -88,61 -110,102 -27,51 -47,133 -47,193 0,59 34,103 86,103 48,0 129,-39 221,-108 l 5,-78 z" /><path
               style="fill:none;stroke:#ffffff;stroke-width:22.57777596;stroke-linecap:square;stroke-linejoin:round;stroke-miterlimit:0;stroke-dasharray:none;stroke-opacity:1"
               inkscape:connector-curvature="0"
               id="path3864"
               d="m 6762,15039 c -102,73 -146,96 -170,96 -24,0 -33,-13 -33,-51 0,-42 10,-97 27,-139 17,-45 32,-61 51,-61 12,0 15,5 23,70 l 85,-50 c 3,-15 3,-22 3,-23 0,-46 -30,-83 -71,-83 -20,0 -35,6 -70,29 -70,44 -88,61 -110,102 -27,51 -47,133 -47,193 0,59 34,103 86,103 48,0 129,-39 221,-108 l 5,-78 z" /></g></g><g
           id="g3866"
           class="com.sun.star.drawing.ClosedBezierShape"
           style="stroke:#ffffff;stroke-width:22.57777596;stroke-linecap:square;stroke-linejoin:round;stroke-miterlimit:0;stroke-dasharray:none;stroke-opacity:1"><g
             id="id24"
             style="stroke:#ffffff;stroke-width:22.57777596;stroke-linecap:square;stroke-linejoin:round;stroke-miterlimit:0;stroke-dasharray:none;stroke-opacity:1"><path
               style="fill:#8d6e63;stroke:#ffffff;stroke-width:22.57777596;stroke-linecap:square;stroke-linejoin:round;stroke-miterlimit:0;stroke-dasharray:none;stroke-opacity:1"
               inkscape:connector-curvature="0"
               id="path3869"
               d="m 6959,14770 c 43,-39 44,-40 87,-73 -13,-25 -18,-34 -20,-36 -6,-13 -17,-6 -13,-27 -2,-5 -3,-8 -14,-35 -24,19 -31,23 -35,27 -3,3 -9,8 -19,15 -4,4 -9,8 -18,13 -4,3 -6,5 -23,13 12,38 22,55 55,103 z m 91,284 c -114,74 -114,62 -126,62 0,1 3,4 3,-6 0,-8 2,-23 8,-42 46,-193 56,-232 56,-241 0,-15 -17,-29 -30,-29 -20,0 -80,33 -163,89 l -5,70 c 84,-45 84,-45 88,-45 1,-7 -8,-8 -8,-3 0,10 -2,20 -16,72 -43,160 -43,165 -43,188 0,28 17,56 41,56 20,0 49,-14 99,-45 17,-11 35,-22 52,-34 8,-4 17,-10 33,-20 l 11,-72 z" /><path
               style="fill:none;stroke:#ffffff;stroke-width:22.57777596;stroke-linecap:square;stroke-linejoin:round;stroke-miterlimit:0;stroke-dasharray:none;stroke-opacity:1"
               inkscape:connector-curvature="0"
               id="path3871"
               d="m 6959,14770 c 43,-39 44,-40 87,-73 -13,-25 -18,-34 -20,-36 -6,-13 -17,-6 -13,-27 -2,-5 -3,-8 -14,-35 -24,19 -31,23 -35,27 -3,3 -9,8 -19,15 -4,4 -9,8 -18,13 -4,3 -6,5 -23,13 12,38 22,55 55,103 z" /><path
               style="fill:none;stroke:#ffffff;stroke-width:22.57777596;stroke-linecap:square;stroke-linejoin:round;stroke-miterlimit:0;stroke-dasharray:none;stroke-opacity:1"
               inkscape:connector-curvature="0"
               id="path3873"
               d="m 7050,15054 c -114,74 -114,62 -126,62 0,1 3,4 3,-6 0,-8 2,-23 8,-42 46,-193 56,-232 56,-241 0,-15 -17,-29 -30,-29 -20,0 -80,33 -163,89 l -5,70 c 84,-45 84,-45 88,-45 1,-7 -8,-8 -8,-3 0,10 -2,20 -16,72 -43,160 -43,165 -43,188 0,28 17,56 41,56 20,0 49,-14 99,-45 17,-11 35,-22 52,-34 8,-4 17,-10 33,-20 l 11,-72 z" /></g></g><g
           id="g3875"
           class="com.sun.star.drawing.ClosedBezierShape"
           style="stroke:#ffffff;stroke-width:22.57777596;stroke-linecap:square;stroke-linejoin:round;stroke-miterlimit:0;stroke-dasharray:none;stroke-opacity:1"><g
             id="id25"
             style="stroke:#ffffff;stroke-width:22.57777596;stroke-linecap:square;stroke-linejoin:round;stroke-miterlimit:0;stroke-dasharray:none;stroke-opacity:1"><path
               style="fill:#8d6e63;stroke:#ffffff;stroke-width:22.57777596;stroke-linecap:square;stroke-linejoin:round;stroke-miterlimit:0;stroke-dasharray:none;stroke-opacity:1"
               inkscape:connector-curvature="0"
               id="path3878"
               d="m 7470,15038 c -100,67 -109,72 -112,72 0,7 8,6 8,1 0,-22 21,-120 53,-238 8,-12 10,-14 45,-53 -77,-18 -111,-22 -151,-22 -40,0 -63,5 -89,21 -34,20 -75,50 -88,64 -37,42 -77,172 -77,250 0,48 22,92 56,92 26,0 61,-21 140,-81 -2,0 -7,30 -7,43 0,18 15,38 33,38 11,0 22,-3 95,-50 27,-17 49,-32 91,-64 l 3,-73 z m -211,27 c -53,39 -75,51 -87,51 -3,0 -4,-2 -4,-26 0,-44 13,-102 36,-153 20,-47 32,-58 55,-58 15,0 42,4 55,7 -13,50 -20,71 -21,77 -5,23 -10,46 -16,69 0,5 -3,15 -6,25 l -12,8 z" /><path
               style="fill:none;stroke:#ffffff;stroke-width:22.57777596;stroke-linecap:square;stroke-linejoin:round;stroke-miterlimit:0;stroke-dasharray:none;stroke-opacity:1"
               inkscape:connector-curvature="0"
               id="path3880"
               d="m 7470,15038 c -100,67 -109,72 -112,72 0,7 8,6 8,1 0,-22 21,-120 53,-238 8,-12 10,-14 45,-53 -77,-18 -111,-22 -151,-22 -40,0 -63,5 -89,21 -34,20 -75,50 -88,64 -37,42 -77,172 -77,250 0,48 22,92 56,92 26,0 61,-21 140,-81 -2,0 -7,30 -7,43 0,18 15,38 33,38 11,0 22,-3 95,-50 27,-17 49,-32 91,-64 l 3,-73 z" /><path
               style="fill:none;stroke:#ffffff;stroke-width:22.57777596;stroke-linecap:square;stroke-linejoin:round;stroke-miterlimit:0;stroke-dasharray:none;stroke-opacity:1"
               inkscape:connector-curvature="0"
               id="path3882"
               d="m 7259,15065 c -53,39 -75,51 -87,51 -3,0 -4,-2 -4,-26 0,-44 13,-102 36,-153 20,-47 32,-58 55,-58 15,0 42,4 55,7 -13,50 -20,71 -21,77 -5,23 -10,46 -16,69 0,5 -3,15 -6,25 l -12,8 z" /></g></g><g
           id="g3884"
           class="com.sun.star.drawing.ClosedBezierShape"
           style="stroke:#ffffff;stroke-width:22.57777596;stroke-linecap:square;stroke-linejoin:round;stroke-miterlimit:0;stroke-dasharray:none;stroke-opacity:1"><g
             id="id26"
             style="stroke:#ffffff;stroke-width:22.57777596;stroke-linecap:square;stroke-linejoin:round;stroke-miterlimit:0;stroke-dasharray:none;stroke-opacity:1"><path
               style="fill:#8d6e63;stroke:#ffffff;stroke-width:22.57777596;stroke-linecap:square;stroke-linejoin:round;stroke-miterlimit:0;stroke-dasharray:none;stroke-opacity:1"
               inkscape:connector-curvature="0"
               id="path3887"
               d="m 7443,15106 c -2,17 -3,26 -3,33 0,47 38,86 87,86 31,0 75,-14 106,-31 58,-34 97,-89 97,-141 0,-41 -13,-56 -67,-89 -28,-18 -35,-28 -35,-45 0,-24 16,-40 39,-40 15,0 23,5 55,45 46,-45 49,-48 69,-77 -30,-36 -55,-49 -86,-49 -74,0 -172,90 -172,159 0,34 20,64 58,91 43,30 44,31 44,47 0,25 -31,53 -59,53 -14,0 -20,-5 -28,-20 -5,-11 -6,-21 -8,-88 -39,29 -46,33 -50,36 -6,4 -15,9 -24,15 l -23,15 z" /><path
               style="fill:none;stroke:#ffffff;stroke-width:22.57777596;stroke-linecap:square;stroke-linejoin:round;stroke-miterlimit:0;stroke-dasharray:none;stroke-opacity:1"
               inkscape:connector-curvature="0"
               id="path3889"
               d="m 7443,15106 c -2,17 -3,26 -3,33 0,47 38,86 87,86 31,0 75,-14 106,-31 58,-34 97,-89 97,-141 0,-41 -13,-56 -67,-89 -28,-18 -35,-28 -35,-45 0,-24 16,-40 39,-40 15,0 23,5 55,45 46,-45 49,-48 69,-77 -30,-36 -55,-49 -86,-49 -74,0 -172,90 -172,159 0,34 20,64 58,91 43,30 44,31 44,47 0,25 -31,53 -59,53 -14,0 -20,-5 -28,-20 -5,-11 -6,-21 -8,-88 -39,29 -46,33 -50,36 -6,4 -15,9 -24,15 l -23,15 z" /></g></g></g></g></g></svg>
